<?xml version="1.0" encoding="UTF-8" standalone="no"?>
<!-- Created with Inkscape (http://www.inkscape.org/) -->

<svg
   width="210mm"
   height="297mm"
   viewBox="0 0 210 297"
   version="1.1"
   id="svg5"
   inkscape:version="1.1 (c68e22c387, 2021-2022-05-23)"
   sodipodi:docname="CellLogo.svg"
   xmlns:inkscape="http://www.inkscape.org/namespaces/inkscape"
   xmlns:sodipodi="http://sodipodi.sourceforge.net/DTD/sodipodi-0.dtd"
   xmlns="http://www.w3.org/2000/svg"
   xmlns:svg="http://www.w3.org/2000/svg"
   xmlns:rdf="http://www.w3.org/1999/02/22-rdf-syntax-ns#"
   xmlns:cc="http://creativecommons.org/ns#"
   xmlns:dc="http://purl.org/dc/elements/1.1/">
  <title
     id="title671">Cell Logo</title>
  <sodipodi:namedview
     id="namedview7"
     pagecolor="#505050"
     bordercolor="#eeeeee"
     borderopacity="1"
     inkscape:pageshadow="0"
     inkscape:pageopacity="0"
     inkscape:pagecheckerboard="0"
     inkscape:document-units="mm"
     showgrid="false"
     inkscape:zoom="0.3884119"
     inkscape:cx="-99.121578"
     inkscape:cy="454.41451"
     inkscape:window-width="1920"
     inkscape:window-height="1057"
     inkscape:window-x="-8"
     inkscape:window-y="-8"
     inkscape:window-maximized="1"
     inkscape:current-layer="svg5" />
  <defs
     id="defs2" />
  <rect
     style="fill:#ff6a00;stroke-width:0.264583;fill-opacity:0.99598396"
     id="rect539"
     width="180"
     height="180"
     x="10"
     y="10" />
  <g
     inkscape:label="Layer 1"
     inkscape:groupmode="layer"
     id="layer1">
    <path
       style="fill:#000000;stroke-width:0.0995994"
       d="m 17.733839,199.90099 c -4.420995,-0.4971 -8.487802,-2.43074 -11.6880165,-5.55728 -3.4013989,-3.32309 -5.4213205,-7.46968 -5.93469468,-12.183 -0.14817042,-1.36037 -0.14817042,-162.944459 0,-164.30482 C 0.51022905,14.191713 1.9197218,10.677659 4.174604,7.7250976 4.8200814,6.8799043 6.4942315,5.1724585 7.375871,4.4601633 10.355385,2.052951 14.030243,0.52773336 17.854408,0.11113705 c 1.360249,-0.14818273 162.930932,-0.14818273 164.291182,0 3.66387,0.39913434 7.17763,1.80874415 10.12995,4.06381335 0.84512,0.645531 2.55243,2.3198201 3.26466,3.2015327 2.41178,2.9856719 3.93128,6.6473389 4.34867,10.4794069 0.14817,1.360361 0.14817,162.94445 0,164.30482 -0.41518,3.81176 -1.87084,7.37995 -4.21419,10.33 -0.60217,0.75807 -2.21936,2.38859 -3.00076,3.02549 -3.04053,2.47826 -6.59713,3.961 -10.52833,4.38926 -1.18429,0.12901 -163.263784,0.1246 -164.411751,-0.005 z m 163.237571,-9.94973 c 2.4849,-0.24688 4.38241,-1.1638 6.17494,-2.98392 1.40182,-1.42337 2.21469,-2.93932 2.67065,-4.98051 0.15663,-0.70124 0.16783,-6.1664 0.16783,-81.87893 0,-65.770066 -0.0243,-81.259524 -0.12833,-81.824768 -0.82609,-4.487999 -4.35559,-7.74771 -8.89316,-8.213392 -1.41142,-0.144851 -160.515263,-0.144851 -161.926678,0 -4.835223,0.496229 -8.471569,4.132877 -8.967757,8.968502 -0.1448396,1.411532 -0.1448396,160.528578 0,161.940118 0.491158,4.7866 4.151558,8.49182 8.860084,8.96856 1.118018,0.11319 160.903651,0.11749 162.042421,0.005 z m -40.88409,-0.55883 c -7.19456,-0.50247 -12.6387,-1.36692 -23.55442,-3.74006 -2.27327,-0.49422 -4.14971,-0.91485 -4.16984,-0.93472 -0.0291,-0.0287 2.07288,-9.69333 2.12719,-9.78067 0.008,-0.0129 1.12842,0.223 2.48979,0.52418 13.45301,2.97625 19.97577,3.9326 26.89193,3.94284 4.58963,0.007 7.99857,-0.45858 11.38941,-1.55486 8.02726,-2.59526 15.50417,-9.3418 19.75957,-17.82937 1.04121,-2.07676 2.08338,-5.37598 2.37547,-7.52011 0.18594,-1.36498 0.16229,-4.37783 -0.0454,-5.77703 -0.58212,-3.9226 -2.22271,-8.50935 -5.09471,-14.24368 -0.34305,-0.68495 -0.69544,-1.41702 -0.78311,-1.62686 l -0.15938,-0.3815 4.43659,-2.183 c 2.44011,-1.20066 4.47159,-2.18302 4.51437,-2.18302 0.16759,0 2.99613,6.02902 4.03596,8.60266 2.90756,7.19631 3.85199,13.32186 2.99662,19.4359 -1.35027,9.65139 -8.04238,20.21295 -17.15748,27.07809 -6.08358,4.58192 -12.7311,7.17511 -20.49918,7.99673 -1.38704,0.1467 -8.17587,0.27069 -9.55343,0.17448 z M 88.397085,182.1805 c -1.993307,-0.29087 -4.175083,-1.18206 -6.619866,-2.70401 -0.95262,-0.59305 -4.332185,-3.07497 -5.294429,-3.88819 -0.239576,-0.20248 -8.570081,-6.64911 -18.512235,-14.32586 -17.796037,-13.74107 -18.077717,-13.95334 -18.145786,-13.67605 -0.03803,0.15493 -0.164701,0.7299 -0.281491,1.27772 -1.038802,4.87273 -3.432639,9.597 -7.796842,15.38719 -1.896567,2.51626 -6.847731,8.51957 -7.024256,8.51694 -0.09683,-0.002 -7.571143,-6.36811 -7.578778,-6.45565 -0.0039,-0.045 0.589379,-0.78457 1.318457,-1.64347 6.758633,-7.96202 9.442978,-12.00377 10.812872,-16.28066 0.480085,-1.49885 0.712949,-2.78909 0.777305,-4.30688 0.148414,-3.50017 -0.677449,-4.87738 -4.885621,-8.14734 -0.617558,-0.47988 -0.845717,-0.71321 -0.77917,-0.79684 0.05176,-0.065 1.405521,-1.82149 3.008367,-3.90322 1.602847,-2.08172 2.945352,-3.81987 2.983344,-3.86253 0.03799,-0.0427 5.667803,4.24908 12.510695,9.53722 l 12.441613,9.61482 0.995961,-0.0506 c 0.547778,-0.0278 1.981958,-0.097 3.187065,-0.15374 7.339174,-0.3453 12.238657,-1.02683 14.962609,-2.08134 l 0.820001,-0.31744 -0.261059,-0.51632 c -0.650154,-1.2859 -2.229547,-3.37376 -4.305905,-5.69216 -1.501033,-1.67602 -3.256583,-3.49502 -8.078367,-8.37033 -6.659979,-6.7339 -8.881836,-9.33763 -10.148368,-11.89255 -0.855634,-1.72604 -1.102399,-2.67607 -1.1045,-4.25228 -0.003,-2.12407 0.558171,-3.49692 2.035091,-4.98019 1.261442,-1.26686 2.358036,-1.87218 4.323669,-2.38661 3.107906,-0.8134 7.533371,-0.81044 15.003079,0.01 2.391959,0.26273 7.757469,0.94688 7.805899,0.99532 0.0444,0.0444 -1.185969,9.8172 -1.245658,9.89432 -0.01607,0.0208 -1.319424,-0.1248 -2.896345,-0.32347 -5.616132,-0.70758 -8.579498,-0.99473 -11.570452,-1.12123 -1.15359,-0.0488 -1.620737,-0.0375 -1.593536,0.0386 0.10442,0.29201 2.674933,3.00774 6.839804,7.22617 2.535615,2.56824 5.354491,5.4608 6.264167,6.42793 5.60292,5.95679 8.281867,9.98005 8.953041,13.44577 0.193234,0.99777 0.182803,2.93292 -0.02063,3.8274 -0.948021,4.16846 -4.502254,6.96147 -10.741991,8.44131 -1.648566,0.39099 -3.166294,0.65508 -5.309888,0.92399 l -1.822451,0.22863 7.995651,6.17123 c 4.397611,3.39417 8.489439,6.56556 9.092947,7.04753 2.413556,1.92747 4.543001,3.15144 5.531708,3.17955 0.737447,0.021 1.839326,-1.5034 4.641142,-6.42073 2.24615,-3.9421 3.151041,-5.41635 4.234519,-6.89887 2.226193,-3.0461 4.374483,-5.02294 6.708693,-6.17331 1.8297,-0.90173 3.07001,-1.22592 5.0384,-1.31692 5.9102,-0.27325 12.53333,3.22551 22.84844,12.06998 2.73618,2.34609 7.12388,6.26949 7.09698,6.34599 -0.0141,0.0401 -1.43746,1.64601 -3.16295,3.56848 -1.7255,1.92248 -3.21499,3.58679 -3.30998,3.69845 -0.16992,0.19973 -0.21536,0.16507 -2.78869,-2.1265 -4.82371,-4.29554 -8.14545,-7.055 -10.88242,-9.04033 -3.85299,-2.79485 -6.96144,-4.34942 -8.92807,-4.46499 -0.99649,-0.0585 -1.57722,0.19733 -2.56699,1.13112 -1.5321,1.4454 -2.58852,2.99119 -5.32481,7.79138 -2.92698,5.13473 -3.885536,6.5862 -5.4048,8.18417 -1.730655,1.82028 -3.390816,2.8393 -5.551286,3.40737 -0.907761,0.2387 -3.230791,0.33719 -4.293905,0.18205 z m 66.473495,-30.30978 c -8.6559,-10.29157 -12.75374,-15.56386 -15.71839,-20.22332 -2.96619,-4.66189 -4.71027,-8.52022 -5.45456,-12.06689 -0.24097,-1.14828 -0.27221,-1.51473 -0.27591,-3.23714 -0.004,-1.51538 0.0354,-2.1239 0.17604,-2.7686 0.66408,-3.04495 2.34092,-5.63131 4.89603,-7.55165 2.07232,-1.55747 5.14958,-2.96463 8.76957,-4.01006 3.5363,-1.02126 6.55801,-1.63535 14.28686,-2.903463 9.81749,-1.610812 12.63609,-2.168623 15.13857,-2.996038 1.35411,-0.447712 2.3903,-0.924338 2.3903,-1.099481 0,-0.18086 -0.58687,-1.28256 -1.05373,-1.978068 -1.96127,-2.9219 -6.13229,-7.061668 -12.64617,-12.551416 -1.59586,-1.344959 -7.89436,-6.532152 -8.296,-6.832256 -0.0273,-0.02036 2.50694,-3.161443 6.16981,-7.647344 0.15351,-0.187994 0.23507,-0.132731 2.34051,1.586003 7.69912,6.285005 11.52686,9.630491 15.03296,13.138964 4.58076,4.583858 6.91831,7.85249 8.01558,11.208343 0.89937,2.750576 0.76709,5.350073 -0.38926,7.649847 -1.63423,3.250159 -5.00809,5.316919 -11.24589,6.889009 -2.58552,0.6516 -6.33305,1.33804 -13.91294,2.5484 -3.9039,0.62337 -7.80675,1.34637 -9.96634,1.84623 -5.40745,1.25161 -8.8618,2.78554 -9.51803,4.22653 -0.40851,0.89705 -0.14515,2.81166 0.66721,4.8508 2.12731,5.33979 6.91753,11.99568 18.31844,25.45307 0.47541,0.56114 0.84931,1.05955 0.83093,1.10757 -0.0578,0.15082 -7.48049,6.38865 -7.59419,6.38191 -0.0595,-0.004 -0.49209,-0.46297 -0.9614,-1.02095 z M 48.594834,137.78038 c -4.873694,-5.6506 -7.591315,-8.91611 -10.142038,-12.18676 -6.475569,-8.30328 -9.777276,-14.30796 -10.727374,-19.50947 -0.207306,-1.13494 -0.231356,-3.80155 -0.04312,-4.781 1.404809,-7.309608 8.623119,-11.667878 21.368271,-12.901737 6.03998,-0.584731 13.281181,-0.33837 19.427343,0.660953 7.968712,1.295661 14.779686,3.785597 21.861287,7.991978 2.310231,1.37225 7.200483,4.537666 7.419891,4.802826 0.303445,0.36674 5.564516,3.71111 7.473706,4.75091 2.37767,1.29496 4.95963,2.29295 6.76849,2.61617 1.87652,0.3353 4.00175,0.17623 5.67697,-0.42495 3.24078,-1.163 7.1039,-4.35512 10.5184,-8.6914 3.55047,-4.508982 5.87144,-9.530839 5.86293,-12.685624 -0.003,-1.001201 -0.18346,-1.436749 -0.85602,-2.062628 -1.72235,-1.602804 -5.76669,-2.759711 -12.13905,-3.472456 -2.74421,-0.306941 -4.97435,-0.473044 -10.85415,-0.808444 -1.03978,-0.05931 -1.91162,-0.128936 -1.93741,-0.154716 -0.0592,-0.05919 0.42775,-9.870252 0.49306,-9.934626 0.0503,-0.04955 1.59138,0.02541 5.87456,0.285783 12.4521,0.756941 19.02101,2.227605 23.63091,5.290553 1.9198,1.275566 3.60752,3.156712 4.54177,5.062282 0.8716,1.777804 1.19555,3.090399 1.27911,5.182729 0.14242,3.566353 -0.86854,7.455559 -3.07315,11.822464 -4.11139,8.143893 -11.30821,15.692523 -17.91197,18.787633 -2.95355,1.38429 -5.75515,2.01025 -8.99726,2.01025 -2.52856,0 -4.69192,-0.34934 -7.16085,-1.1563 -4.09808,-1.33946 -7.738611,-3.26797 -13.323274,-7.05779 -3.488216,-2.36714 -6.347421,-4.25603 -7.569282,-5.00052 -8.072606,-4.91866 -15.008677,-7.107446 -25.098153,-7.920103 -0.872256,-0.07027 -3.124954,-0.122646 -5.178982,-0.120453 -3.657224,0.0038 -5.229529,0.09981 -8.017467,0.489003 -4.775901,0.666709 -8.682346,2.128003 -9.872971,3.693203 -0.270468,0.35556 -0.285349,0.42687 -0.277327,1.32873 0.0075,0.84335 0.0567,1.0963 0.427494,2.19807 1.810459,5.37953 6.750702,12.16948 19.734406,27.1233 0.586982,0.67605 0.983772,1.21306 0.932888,1.26256 -0.346655,0.33725 -7.463414,6.47499 -7.50525,6.4728 -0.02913,-0.002 -1.202012,-1.33499 -2.606388,-2.96322 z M 112.74651,99.597084 C 88.932591,88.552391 79.600731,83.489304 74.227386,78.69818 70.386203,75.273202 69.08416,71.583973 70.476714,68.070954 c 1.364711,-3.442789 5.103958,-5.76626 12.816083,-7.963572 0.534084,-0.152171 0.97106,-0.30199 0.97106,-0.332931 0,-0.123511 -5.867958,-1.794936 -11.553119,-3.290787 C 68.055996,55.258931 56.785245,52.462733 55.430863,52.196646 51.906311,51.504192 45.549919,50.06128 38.101186,48.262785 35.471857,47.627932 32.53627,46.930607 31.57766,46.713173 26.851713,45.641224 24.506726,44.88166 21.894335,43.576639 19.351559,42.306401 17.453147,40.822932 15.847352,38.851377 12.205827,34.380405 11.207856,29.057149 12.458175,20.773235 c 0.293274,-1.943068 1.007922,-5.866314 1.083915,-5.950438 0.03666,-0.04059 2.26092,0.344427 4.942789,0.855586 l 4.876123,0.92938 -0.03228,0.24006 c -0.01775,0.132032 -0.206417,1.209838 -0.419249,2.395121 -0.784466,4.368768 -1.01138,6.628608 -0.879939,8.763356 0.0916,1.487685 0.258552,2.174003 0.785317,3.228321 1.174322,2.350401 3.633184,3.843702 8.115434,4.928621 0.876443,0.212145 3.251804,0.794229 5.278579,1.293526 14.088147,3.470628 24.390596,5.684812 29.878749,6.421481 l 0.49798,0.06684 -0.448183,-0.43838 C 65.890913,43.2656 64.434325,41.856373 62.90055,40.375092 57.342199,35.00698 55.069889,32.156387 54.248575,29.521267 c -1.306317,-4.191207 0.714669,-7.852626 5.097173,-9.234542 4.335805,-1.367191 12.205856,-0.980346 27.208814,1.337426 3.852008,0.595087 15.316068,2.510463 15.423588,2.576919 0.084,0.05188 -1.50042,9.723556 -1.61098,9.834126 -0.0228,0.02272 -2.568418,-0.382912 -5.657115,-0.901407 -14.18451,-2.38114 -20.792577,-3.251004 -27.317667,-3.59601 l -1.085528,-0.05739 0.148636,0.228215 c 0.08175,0.125517 2.035839,2.065909 4.342419,4.311982 2.306579,2.246073 4.649754,4.576808 5.207056,5.179414 3.097019,3.348772 4.397336,5.659507 4.545719,8.077992 l 0.05562,0.906499 2.550846,0.725646 c 3.112502,0.885426 8.213049,2.557054 10.169925,3.333044 3.171334,1.257575 5.498544,2.66882 6.623644,4.016633 2.387445,2.860056 1.928675,6.732731 -1.064831,8.988598 -1.515574,1.142113 -3.593873,1.968615 -8.027651,3.192463 -5.800848,1.601202 -8.975934,2.584788 -9.440491,2.924507 -0.158905,0.116208 -0.09482,0.192971 0.662824,0.793879 4.428022,3.511999 13.605087,8.389769 31.315064,16.644495 2.84843,1.327676 5.54873,2.582793 6.00065,2.789148 0.45191,0.206355 0.82166,0.404024 0.82166,0.439264 0,0.09622 -4.08164,8.910632 -4.16463,8.993632 -0.0395,0.0395 -1.52751,-0.60347 -3.30681,-1.428711 z M 18.082423,88.385963 c -2.853921,-0.366879 -4.79332,-1.593913 -5.761394,-3.64516 -0.55196,-1.169545 -0.613079,-3.000245 -0.144302,-4.322258 0.990874,-2.794384 3.745922,-4.936011 14.321545,-11.132804 5.36414,-3.143122 9.441515,-5.585421 11.332275,-6.787899 1.34033,-0.852417 1.669879,-1.103344 1.542598,-1.174581 -0.227473,-0.12731 -9.037665,-0.0019 -12.924671,0.184196 -1.752887,0.08385 -5.175185,0.267251 -7.605108,0.407549 -2.429921,0.140297 -4.430654,0.241323 -4.446074,0.224506 -0.06376,-0.06953 -0.616221,-9.896475 -0.559584,-9.953583 0.0586,-0.05909 2.379941,-0.202835 8.626932,-0.534223 12.528672,-0.664608 19.436251,-0.578109 23.804093,0.298086 3.945885,0.791545 6.364286,2.520444 7.314017,5.228743 0.306716,0.874645 0.388103,2.565593 0.168511,3.501185 -0.900631,3.837292 -4.694343,7.000821 -17.285676,14.414319 -1.502137,0.88442 -2.750273,1.627157 -2.773636,1.650524 -0.02337,0.02338 0.04038,0.02365 0.141664,7.53e-4 0.101279,-0.02304 1.820004,-0.335754 3.81939,-0.694916 3.832513,-0.688456 10.789925,-2.029345 17.027129,-3.281598 2.052094,-0.412005 3.799997,-0.748907 3.884237,-0.748673 0.122252,3e-4 0.350456,0.977695 1.131008,4.843925 0.537821,2.663926 0.941183,4.878985 0.896362,4.922357 -0.08018,0.07759 -9.437458,1.949532 -16.166217,3.234088 -9.557236,1.824523 -16.353436,2.896087 -20.81553,3.282008 -1.563841,0.135253 -4.750868,0.183466 -5.527569,0.08361 z M 148.96458,68.976387 c -1.92184,-0.381922 -3.43867,-1.219267 -5.21669,-2.879813 -0.96735,-0.903427 -1.83523,-1.961168 -2.90415,-3.53942 -1.87696,-2.771308 -3.34914,-5.615345 -6.74598,-13.032299 -2.80166,-6.117361 -4.11135,-8.721416 -5.3094,-10.556702 l -0.6715,-1.028666 -0.65005,0.978865 c -2.63287,3.964697 -6.0454,12.490051 -10.47954,26.180549 -0.47873,1.478107 -0.90026,2.71904 -0.93671,2.757622 -0.0364,0.03858 -2.20537,-0.633745 -4.81979,-1.494061 l -4.7535,-1.564215 1.48208,-4.432382 c 2.57288,-7.694624 3.9639,-11.610136 5.54616,-15.611658 3.90306,-9.870749 7.22813,-14.865828 11.12902,-16.718502 1.09258,-0.518913 1.97626,-0.741359 3.20251,-0.806151 1.82368,-0.09636 3.3829,0.346932 4.9961,1.4204 1.71453,1.140904 3.24487,2.920832 4.97673,5.788402 1.42532,2.359987 2.7486,5.0413 6.06131,12.281748 2.91866,6.379201 4.96476,10.1044 6.40009,11.652213 l 0.47281,0.509865 0.3716,-0.309696 c 0.92849,-0.773825 2.82843,-3.354626 4.17928,-5.67693 2.04335,-3.512843 4.27984,-8.154201 7.1273,-14.791208 1.12673,-2.626265 3.60798,-8.587741 4.46635,-10.730882 0.2136,-0.533325 0.41578,-0.970337 0.44929,-0.97114 0.10145,-0.0025 9.0961,3.696134 9.17818,3.774025 0.0783,0.07427 -2.26278,5.822252 -4.60818,11.314536 -5.99634,14.041721 -10.36845,21.553495 -14.49829,24.909612 -2.75602,2.239676 -5.66776,3.127811 -8.44503,2.575888 z"
       id="path381" />
  </g>
  <metadata
     id="metadata669">
    <rdf:RDF>
      <cc:Work
         rdf:about="">
        <dc:title>Cell Logo</dc:title>
      </cc:Work>
    </rdf:RDF>
  </metadata>
</svg>
